#!OML:ASF F:\VICON\USERDATA\INSTALL\rory3\rory3.ASF
:FULLY-SPECIFIED
:DEGREES
2084
root -3.69403 18.0618 -6.59625 8.60548 -53.4852 12.2665
lowerback 19.221 -0.346369 0.562581
upperback 5.58815 -0.316342 3.96648
thorax -4.70293 -0.255007 4.00096
lowerneck -18.1726 -1.90196 -8.20745
upperneck 14.263 -2.3686 10.4183
head 7.60283 -0.599042 4.54499
rclavicle -6.20208e-014 4.77083e-014
rhumerus -21.661 30.1562 -90.0766
rradius 48.9848
rwrist 38.1035
rhand -9.7552 -9.82944
rfingers 7.12502
rthumb 16.2194 -39.171
lclavicle -6.20208e-014 4.77083e-014
lhumerus -24.5657 -25.1522 100.793
lradius 42.9339
lwrist -5.98387
lhand -15.4204 27.0548
lfingers 7.12502
lthumb 10.7593 56.7592
rfemur -39.4096 4.93391 7.19204
rtibia 29.0332
rfoot -1.75483 4.58311
rtoes 16.966
lfemur -32.7276 5.1381 -20.6286
ltibia 43.5096
lfoot -3.18337 10.3149
ltoes -11.7893
2085
root -3.6644 18.0639 -6.58962 8.70989 -53.0556 11.9647
lowerback 19.0984 -0.355834 0.731162
upperback 5.58768 -0.298087 3.98285
thorax -4.64109 -0.246375 3.91473
lowerneck -18.2051 -1.9335 -8.13004
upperneck 14.2821 -2.42305 10.3743
head 7.61891 -0.623673 4.51116
rclavicle -2.38542e-014 4.77083e-015
rhumerus -21.7032 30.0889 -90.0645
rradius 48.8878
rwrist 38.2161
rhand -9.9634 -9.64426
rfingers 7.12502
rthumb 16.0189 -39.002
lclavicle -2.38542e-014 4.77083e-015
lhumerus -24.6276 -25.2021 100.94
lradius 42.7215
lwrist -5.47971
lhand -15.9018 27.4923
lfingers 7.12502
lthumb 10.2949 57.2203
rfemur -39.1578 4.81408 7.26023
rtibia 28.9627
rfoot -1.8518 4.33281
rtoes 16.8818
lfemur -32.3861 5.54226 -20.7644
ltibia 43.9425
lfoot -3.06227 10.6244
ltoes -10.4411
2086
root -3.63727 18.0648 -6.5777 8.96506 -52.5678 11.6329
lowerback 18.713 -0.440819 0.959646
upperback 5.60402 -0.376185 3.98999
thorax -4.41767 -0.285493 3.7991
lowerneck -18.2435 -1.95 -8.13479
upperneck 14.25 -2.45184 10.44
head 7.61913 -0.630706 4.53055
rclavicle -4.92986e-014 3.81667e-014
rhumerus -21.5701 30.0818 -90.0779
rradius 48.6689
rwrist 38.3778
rhand -10.0828 -9.67811
rfingers 7.12502
rthumb 15.904 -39.0451
lclavicle -4.92986e-014 3.81667e-014
lhumerus -24.5471 -24.9659 100.99
lradius 42.3968
lwrist -5.31955
lhand -16.0282 27.7133
lfingers 7.12502
lthumb 10.173 57.4473
rfemur -39.0388 4.61518 7.34194
rtibia 28.94
rfoot -1.99256 4.09482
rtoes 16.275
lfemur -32.1252 5.8505 -20.8663
ltibia 44.2702
lfoot -3.11521 10.9382
ltoes -9.42455
2087
root -3.605 18.0602 -6.57139 9.00312 -52.1491 11.4614
lowerback 18.5559 -0.491411 1.02781
upperback 5.56276 -0.430442 3.96508
thorax -4.37686 -0.310214 3.74193
lowerneck -18.0929 -1.97538 -8.22897
upperneck 14.177 -2.49872 10.6086
head 7.57766 -0.64712 4.5958
rclavicle -8.5875e-014 6.36111e-015
rhumerus -21.5271 30.0801 -90.1601
rradius 48.4295
rwrist 38.6004
rhand -10.1756 -9.49591
rfingers 7.12502
rthumb 15.8145 -38.87
lclavicle -8.5875e-014 6.36111e-015
lhumerus -24.5963 -24.5683 101.08
lradius 42.0916
lwrist -5.27661
lhand -16.111 27.9042
lfingers 7.12502
lthumb 10.0931 57.6421
rfemur -38.9229 4.52521 7.31125
rtibia 28.9999
rfoot -2.20643 3.8416
rtoes 15.2246
lfemur -31.7373 6.06064 -21.0143
ltibia 44.5293
lfoot -3.22163 11.4316
ltoes -8.7123
2088
root -3.56692 18.0488 -6.57109 8.98246 -51.8338 11.2195
lowerback 18.6476 -0.469647 1.01757
upperback 5.51293 -0.395828 3.9802
thorax -4.48021 -0.291448 3.75965
lowerneck -17.9687 -1.99635 -8.26322
upperneck 14.1987 -2.54006 10.6681
head 7.56879 -0.666441 4.61665
rclavicle 7.79236e-014 -3.18055e-014
rhumerus -21.4794 30.1633 -90.1959
rradius 48.1436
rwrist 38.7134
rhand -10.1927 -9.3571
rfingers 7.12502
rthumb 15.7981 -38.7325
lclavicle 7.79236e-014 -3.18055e-014
lhumerus -24.6739 -24.1912 101.184
lradius 41.8351
lwrist -5.29704
lhand -16.3023 28.3331
lfingers 7.12502
lthumb 9.90851 58.0799
rfemur -38.7919 4.66173 7.2794
rtibia 29.1455
rfoot -2.44788 3.52089
rtoes 14.7285
lfemur -31.2435 6.46384 -21.1076
ltibia 44.7709
lfoot -3.28994 12.0155
ltoes -6.57651
2089
root -3.52744 18.034 -6.57153 8.888 -51.5539 11.0598
lowerback 18.7436 -0.399435 0.838051
upperback 5.47117 -0.325204 4.08518
thorax -4.57773 -0.255505 3.96311
lowerneck -18.0048 -2.03522 -8.29716
upperneck 14.3706 -2.56514 10.5163
head 7.63177 -0.692009 4.57167
rclavicle 2.8625e-014 -8.42847e-014
rhumerus -21.4762 30.3326 -90.0644
rradius 47.8971
rwrist 38.7367
rhand -10.0906 -9.28634
rfingers 7.12502
rthumb 15.8964 -38.6539
lclavicle 2.8625e-014 -8.42847e-014
lhumerus -24.7 -23.7627 101.39
lradius 41.5256
lwrist -5.41601
lhand -16.5147 28.1913
lfingers 7.12502
lthumb 9.70356 57.9477
rfemur -38.7154 4.83625 7.17956
rtibia 29.3811
rfoot -2.69898 3.21237
rtoes 14.3047
lfemur -30.8144 7.11143 -21.3282
ltibia 45.0415
lfoot -3.23362 12.4958
ltoes -5.33396
2090
root -3.48642 18.0215 -6.57042 8.80311 -51.2274 10.8954
lowerback 18.7039 -0.381392 0.922273
upperback 5.47845 -0.291144 3.99006
thorax -4.55238 -0.238028 3.80355
lowerneck -17.8431 -2.08623 -8.1291
upperneck 14.2793 -2.67626 10.4758
head 7.58272 -0.744036 4.51322
rclavicle 1.27222e-014 -7.63333e-014
rhumerus -21.447 30.3083 -90.1703
rradius 47.7558
rwrist 38.9204
rhand -9.60542 -9.33191
rfingers 7.12502
rthumb 16.3636 -38.6616
lclavicle 1.27222e-014 -7.63333e-014
lhumerus -24.7047 -23.5423 101.334
lradius 41.265
lwrist -5.52598
lhand -16.6208 28.1377
lfingers 7.12502
lthumb 9.60127 57.8989
rfemur -38.6222 4.93486 7.0889
rtibia 29.6196
rfoot -2.95187 2.91551
rtoes 14.2488
lfemur -30.4253 7.87514 -21.5908
ltibia 45.281
lfoot -3.12088 12.6896
ltoes -4.98791
2091
root -3.44232 18.0046 -6.57138 8.62876 -50.9106 10.8976
lowerback 18.7175 -0.3323 0.834802
upperback 5.44506 -0.243494 3.88295
thorax -4.5986 -0.211866 3.72844
lowerneck -17.6752 -2.13947 -8.11247
upperneck 14.1913 -2.79522 10.6675
head 7.54024 -0.787481 4.55887
rclavicle -8.11041e-014 -6.04305e-014
rhumerus -21.3548 30.2604 -90.2631
rradius 47.6219
rwrist 39.3253
rhand -8.78598 -9.66387
rfingers 7.12502
rthumb 17.1524 -38.9268
lclavicle -8.11041e-014 -6.04305e-014
lhumerus -24.7316 -23.5029 101.293
lradius 41.0317
lwrist -5.51673
lhand -16.6213 28.4009
lfingers 7.12502
lthumb 9.60078 58.1621
rfemur -38.5651 5.01996 6.87008
rtibia 29.7762
rfoot -3.07407 2.56372
rtoes 14.6218
lfemur -30.0427 8.65444 -21.9669
ltibia 45.3808
lfoot -2.95995 12.69
ltoes -4.40138
2092
root -3.40035 17.9992 -6.56554 8.52618 -50.5297 10.8217
lowerback 18.5903 -0.350492 0.818697
upperback 5.4594 -0.276346 3.80303
thorax -4.51495 -0.227119 3.65568
lowerneck -17.7757 -2.15647 -8.22954
upperneck 14.3353 -2.85542 10.9936
head 7.61847 -0.789506 4.68692
rclavicle 3.65764e-014 -4.45278e-014
rhumerus -21.1186 30.1721 -90.3489
rradius 47.2333
rwrist 39.5209
rhand -8.55798 -9.92347
rfingers 7.12502
rthumb 17.3719 -39.1671
lclavicle 3.65764e-014 -4.45278e-014
lhumerus -24.6245 -23.3456 101.18
lradius 40.7177
lwrist -5.57239
lhand -16.4906 28.6732
lfingers 7.12502
lthumb 9.72682 58.4286
rfemur -38.4057 4.97565 6.74179
rtibia 29.8637
rfoot -3.22204 2.31949
rtoes 14.272
lfemur -29.5325 9.05941 -22.2371
ltibia 45.2751
lfoot -2.82781 12.8668
ltoes -4.19882
2093
root -3.36598 18.0109 -6.55243 8.58607 -50.0752 10.5925
lowerback 18.2911 -0.376103 0.796251
upperback 5.47282 -0.318065 3.85414
thorax -4.34016 -0.247971 3.72541
lowerneck -17.8826 -2.19355 -8.24564
upperneck 14.457 -2.90268 10.9855
head 7.68207 -0.809659 4.68472
rclavicle -1.00187e-013 -2.54444e-014
rhumerus -21.0078 30.214 -90.3025
rradius 46.8824
rwrist 39.4247
rhand -8.71838 -9.92644
rfingers 7.12502
rthumb 17.2175 -39.1837
lclavicle -1.00187e-013 -2.54444e-014
lhumerus -24.5552 -22.9767 101.241
lradius 40.4445
lwrist -5.78932
lhand -16.1203 28.8895
lfingers 7.12502
lthumb 10.0841 58.6278
rfemur -38.1867 4.84781 6.73574
rtibia 29.9394
rfoot -3.48874 2.14027
rtoes 13.5385
lfemur -28.9249 9.09168 -22.3808
ltibia 44.946
lfoot -2.62445 13.29
ltoes -4.51046
2094
root -3.32723 18.009 -6.54386 8.67358 -49.6629 10.4663
lowerback 17.9724 -0.352252 0.744714
upperback 5.43308 -0.298979 3.8573
thorax -4.2155 -0.237021 3.74742
lowerneck -17.8786 -2.29078 -8.1629
upperneck 14.4358 -3.02862 10.8448
head 7.68411 -0.877722 4.6069
rclavicle -3.33958e-014 2.8625e-014
rhumerus -21.0087 30.2061 -90.2327
rradius 46.7752
rwrist 39.511
rhand -8.76795 -10.0596
rfingers 7.12502
rthumb 17.1698 -39.321
lclavicle -3.33958e-014 2.8625e-014
lhumerus -24.6444 -23.0929 101.377
lradius 40.3251
lwrist -5.58748
lhand -15.7591 28.9253
lfingers 7.12502
lthumb 10.4326 58.6465
rfemur -38.1537 4.61497 6.68369
rtibia 30.0093
rfoot -3.57861 2.008
rtoes 13.0445
lfemur -28.4325 9.43832 -22.6761
ltibia 44.4528
lfoot -2.23592 13.4998
ltoes -6.18247
